<?xml version="1.0" standalone="no"?>
<!DOCTYPE svg PUBLIC "-//W3C//DTD SVG 20010904//EN"
 "http://www.w3.org/TR/2001/REC-SVG-20010904/DTD/svg10.dtd">
<svg version="1.0" xmlns="http://www.w3.org/2000/svg"
 width="260.000000pt" height="260.000000pt" viewBox="0 0 260.000000 260.000000"
 preserveAspectRatio="xMidYMid meet">
<metadata>
Created by potrace 1.11, written by Peter Selinger 2001-2013
</metadata>
<g transform="translate(0.000000,260.000000) scale(0.100000,-0.100000)"
fill="#000000" stroke="none">
<path d="M14 2344 c-18 -14 -18 -14 6 -3 31 14 36 19 24 19 -6 0 -19 -7 -30
-16z"/>
<path d="M83 2278 c-25 -37 -28 -48 -21 -81 4 -21 28 -66 52 -100 43 -62 68
-110 132 -261 18 -44 45 -97 59 -117 14 -21 25 -41 25 -44 0 -13 100 -107 149
-139 58 -39 43 -50 -22 -16 -37 20 -39 20 -67 3 -17 -9 -30 -21 -30 -25 0 -5
11 -1 25 8 22 14 26 14 48 -3 31 -23 70 -90 56 -95 -24 -8 104 -118 175 -152
66 -32 123 -76 98 -76 -7 0 -12 5 -12 12 0 6 -3 8 -7 5 -3 -4 19 -34 50 -66
33 -34 57 -69 57 -81 0 -12 5 -18 10 -15 6 3 13 -1 16 -9 3 -9 11 -16 18 -16
6 0 25 -7 41 -16 17 -8 43 -16 59 -16 l29 -1 -22 -18 c-14 -12 -18 -20 -10
-25 6 -3 15 0 20 7 5 8 9 9 9 3 0 -5 -4 -14 -9 -20 -5 -5 -12 -19 -16 -31 -11
-38 28 -30 43 9 6 17 15 29 18 25 4 -4 19 8 35 25 22 26 26 36 17 53 -21 40
27 -18 54 -66 61 -108 72 -126 99 -166 35 -51 73 -80 155 -121 93 -47 164 -62
279 -58 61 1 116 -2 142 -10 69 -21 124 -28 288 -39 55 -3 116 -8 135 -10 73
-8 146 -17 165 -21 11 -2 37 -6 58 -9 l38 -5 -21 38 c-47 82 -21 76 -298 75
-137 0 -272 4 -301 10 l-52 10 21 22 c61 65 -57 142 -158 104 -52 -20 -56 -63
-10 -108 l32 -31 -90 4 c-112 5 -194 34 -299 106 -22 15 -43 27 -48 26 -8 -1
-37 50 -37 65 0 5 -12 28 -27 52 -57 89 -93 170 -86 191 4 12 6 29 4 38 -3 20
48 49 75 42 10 -2 30 5 44 16 l25 20 -25 1 c-67 5 -108 4 -104 -2 4 -7 -26
-22 -33 -16 -2 2 8 20 21 39 20 31 21 35 6 31 -10 -3 -25 -21 -34 -41 -9 -21
-14 -27 -12 -15 2 13 0 23 -5 23 -4 0 -5 8 -2 17 5 12 2 15 -10 10 -14 -5 -15
-2 -6 20 8 21 7 24 -5 20 -16 -7 -12 16 8 42 8 11 8 15 -2 19 -10 3 -9 8 4 23
23 26 3 24 -31 -3 l-27 -21 7 32 c4 17 3 31 -2 30 -22 -4 -22 4 2 46 27 50 31
65 14 65 -5 0 -8 -3 -6 -7 7 -11 -27 -78 -37 -76 -6 1 -11 9 -12 17 -1 8 -9
29 -18 47 -10 20 -14 46 -11 73 4 28 3 35 -3 21 -8 -18 -9 -17 -16 8 -3 15
-11 25 -16 22 -6 -3 -11 5 -11 19 -1 14 -3 31 -4 36 -1 6 -3 16 -4 23 0 8 -10
13 -22 13 -16 -1 -25 10 -39 43 -10 26 -19 39 -22 31 -2 -8 -24 23 -48 70 -39
75 -62 102 -187 226 -97 95 -163 151 -203 173 -62 33 -126 45 -147 29 -9 -7
-30 0 -68 21 -30 17 -59 31 -64 31 -5 0 -22 -19 -38 -42z m277 -256 c143 -145
204 -213 313 -352 37 -47 71 -90 75 -95 32 -40 193 -277 198 -292 7 -18 -49
54 -116 152 -19 28 -38 52 -41 55 -3 3 -33 42 -67 86 -34 45 -67 88 -74 95 -7
8 -33 39 -58 69 -25 30 -49 60 -55 66 -5 6 -38 43 -73 82 -60 68 -111 122
-210 225 -26 26 -42 47 -37 47 6 0 71 -62 145 -138z m290 -562 c0 -5 -23 -10
-51 -10 -31 0 -48 4 -44 10 3 6 26 10 51 10 24 0 44 -4 44 -10z m1180 -751 c9
-16 8 -25 -6 -40 -22 -24 -27 -24 -60 4 -36 32 -27 57 20 57 26 0 38 -6 46
-21z"/>
<path d="M1144 1342 c-13 -9 -26 -42 -16 -42 8 0 35 40 30 45 -2 2 -8 1 -14
-3z"/>
<path d="M1126 1271 c-4 -7 -5 -15 -2 -18 9 -9 19 4 14 18 -4 11 -6 11 -12 0z"/>
<path d="M1190 1120 c-23 -5 -23 -7 -6 -13 11 -4 24 -3 30 3 14 14 5 18 -24
10z"/>
<path d="M1235 1109 c-11 -17 -2 -18 19 -3 17 12 17 14 4 14 -9 0 -20 -5 -23
-11z"/>
<path d="M1116 965 c-3 -8 -1 -15 4 -15 6 0 10 7 10 15 0 8 -2 15 -4 15 -2 0
-6 -7 -10 -15z"/>
</g>
</svg>
